<svg id="svg" xmlns="http://www.w3.org/2000/svg" xmlns:xlink="http://www.w3.org/1999/xlink" width="1200" height="800" viewBox="0, 0, 400,300"><g id="svgg"><path id="path0" d="M0.000 150.038 L 0.000 300.075 200.000 300.075 L 400.000 300.075 400.000 150.038 L 400.000 0.000 200.000 0.000 L 0.000 0.000 0.000 150.038 M266.270 63.727 C 268.227 64.545,270.206 66.490,271.026 68.402 C 273.921 75.153,273.338 81.620,269.833 81.620 C 269.134 81.620,268.848 81.741,268.944 81.995 C 269.022 82.202,269.301 83.114,269.564 84.023 L 270.042 85.675 272.055 86.203 C 276.617 87.400,281.294 91.534,283.304 96.148 L 284.021 97.793 299.925 97.884 C 314.076 97.965,315.928 98.029,316.729 98.473 C 317.882 99.111,319.162 100.464,319.526 101.429 C 319.732 101.974,320.311 136.964,320.192 141.637 C 320.185 141.892,320.820 142.383,321.648 142.762 C 323.170 143.461,324.081 143.619,324.081 143.184 C 324.081 142.370,326.403 142.024,327.624 142.656 C 328.682 143.203,329.679 142.439,330.688 140.306 C 332.514 136.449,336.993 134.262,340.538 135.496 C 343.770 136.622,345.414 138.043,348.556 142.428 C 349.485 143.725,350.941 145.531,351.792 146.441 C 356.384 151.356,356.682 157.965,352.491 161.958 C 351.231 163.159,349.676 165.817,349.427 167.196 L 349.228 168.301 351.106 168.246 C 353.301 168.183,353.189 168.001,353.950 172.843 C 355.329 181.620,353.914 191.660,350.079 200.300 C 349.127 202.445,349.068 202.721,349.526 202.889 C 356.725 205.530,361.685 208.009,366.526 211.384 C 369.841 213.695,369.691 213.341,368.323 215.622 C 360.495 228.669,345.745 237.082,327.260 239.041 C 324.444 239.340,322.290 239.708,322.069 239.929 C 321.767 240.231,302.823 240.313,227.852 240.338 C 135.461 240.369,134.003 240.378,133.394 240.950 C 131.225 242.988,127.058 243.570,119.178 242.937 C 111.405 242.311,99.708 241.923,97.824 242.227 C 90.034 243.486,88.882 243.562,87.607 242.903 C 86.133 242.141,86.375 241.002,88.297 239.658 C 89.164 239.052,90.942 237.544,92.248 236.307 C 95.000 233.703,95.914 233.466,97.928 234.835 C 100.003 236.245,99.384 235.378,96.923 233.426 C 94.036 231.136,90.443 229.132,87.856 228.367 C 82.339 226.737,79.757 225.928,79.290 225.682 C 79.004 225.532,77.442 224.757,75.819 223.961 C 65.342 218.822,61.451 210.490,66.278 203.531 C 67.288 202.075,67.524 201.914,69.530 201.316 L 71.693 200.670 69.415 198.535 C 66.655 195.947,66.823 196.020,66.374 197.220 C 64.912 201.124,61.228 202.643,58.891 200.305 L 57.546 198.960 57.665 196.853 C 57.850 193.586,60.556 192.343,64.291 193.810 C 65.301 194.206,65.308 194.125,64.376 192.717 C 63.969 192.101,63.495 191.191,63.322 190.694 C 63.068 189.966,62.655 189.655,61.186 189.085 C 57.812 187.776,57.323 185.034,59.633 180.378 C 61.203 177.212,61.812 177.245,64.554 180.646 C 67.414 184.194,67.356 187.316,64.399 188.954 C 63.252 189.589,65.240 193.000,69.035 196.910 L 71.141 199.080 70.565 197.739 C 68.814 193.673,69.951 190.931,73.543 190.555 L 75.043 190.398 73.933 188.747 C 73.322 187.839,72.577 186.735,72.277 186.293 C 67.573 179.359,66.616 172.262,70.147 170.487 C 77.186 166.950,89.199 171.791,98.195 181.792 L 99.316 183.038 99.396 142.435 L 99.475 101.832 100.319 100.555 C 100.904 99.672,101.642 99.057,102.720 98.555 L 104.276 97.830 173.645 97.827 L 243.015 97.824 243.935 96.904 C 244.855 95.984,244.856 95.984,247.846 96.079 C 250.786 96.172,250.842 96.161,251.174 95.424 C 252.915 91.557,257.646 87.393,261.455 86.374 C 262.448 86.109,262.866 85.843,262.866 85.477 C 262.866 84.744,262.443 84.568,261.524 84.918 C 259.167 85.814,255.396 81.882,254.114 77.191 C 253.481 74.877,253.322 74.591,252.469 74.233 C 250.424 73.374,249.062 71.050,249.062 68.421 L 249.062 67.299 250.941 67.148 C 252.524 67.021,253.223 66.756,255.368 65.470 C 259.403 63.049,263.197 62.443,266.270 63.727 M103.174 109.141 C 101.666 110.076,101.725 107.440,101.725 173.272 L 101.725 235.489 102.401 235.670 C 102.772 235.769,104.200 235.853,105.575 235.855 L 108.074 235.859 106.709 234.299 C 102.211 229.158,101.408 224.207,104.142 218.478 C 112.391 201.193,117.769 194.036,123.040 193.329 C 124.571 193.124,126.350 190.838,125.338 190.375 C 123.396 189.486,122.051 183.376,123.112 180.262 C 126.049 171.640,136.909 171.266,141.625 179.623 C 143.287 182.568,142.323 184.546,139.226 184.546 C 137.763 184.546,137.146 185.296,137.136 187.090 C 137.121 189.720,134.516 192.948,132.409 192.948 C 129.611 192.948,127.425 196.394,128.485 199.130 C 129.006 200.475,130.560 205.785,131.140 208.201 C 131.467 209.561,131.433 209.553,133.262 208.739 C 140.380 205.571,143.136 204.069,143.136 203.358 C 143.136 201.843,145.180 200.497,146.964 200.838 C 148.318 201.097,148.853 200.629,148.443 199.543 C 147.453 196.921,154.279 190.959,157.207 191.888 C 157.862 192.096,159.640 194.507,159.640 195.188 C 159.640 197.718,154.330 202.064,151.270 202.039 C 149.646 202.026,148.543 202.826,148.526 204.028 C 148.512 205.030,147.495 206.223,145.986 207.005 C 145.326 207.347,143.107 208.837,141.055 210.315 C 132.842 216.232,129.533 217.192,126.508 214.537 L 125.495 213.647 124.863 214.717 C 124.515 215.306,124.231 215.891,124.231 216.016 C 124.231 216.141,123.229 217.754,122.004 219.599 C 119.712 223.054,119.593 223.853,121.372 223.857 C 121.716 223.857,124.367 225.577,127.031 227.527 C 130.559 230.109,134.432 235.058,134.433 236.986 C 134.434 237.287,152.558 237.347,225.198 237.286 L 315.962 237.209 316.646 236.526 L 317.329 235.842 317.408 194.573 L 317.486 153.304 316.434 152.312 C 313.718 149.750,313.829 143.860,316.624 142.270 L 317.476 141.785 317.477 126.542 C 317.480 110.130,317.485 110.196,315.914 109.095 C 314.854 108.353,104.371 108.398,103.174 109.141 M221.226 130.705 C 221.826 131.023,223.469 131.867,224.879 132.580 C 231.798 136.083,236.275 142.073,236.941 148.719 C 237.167 150.974,237.348 151.226,238.738 151.233 C 239.729 151.238,240.857 152.178,240.522 152.719 C 240.413 152.895,239.982 153.038,239.564 153.038 C 239.056 153.038,238.751 153.237,238.647 153.638 C 238.538 154.055,238.237 154.239,237.664 154.239 C 236.936 154.239,236.820 154.373,236.687 155.367 C 235.848 161.619,230.207 167.950,223.155 170.550 C 220.345 171.586,214.407 171.874,212.003 171.089 C 203.926 168.454,198.962 163.575,197.149 156.489 C 196.478 153.865,196.369 153.638,195.781 153.638 C 195.543 153.638,195.349 153.465,195.349 153.254 C 195.349 153.043,194.944 152.717,194.449 152.530 C 192.880 151.938,193.335 150.975,195.338 150.650 C 196.380 150.480,196.401 150.448,196.621 148.694 C 197.553 141.226,201.629 136.001,209.452 132.244 C 214.478 129.830,218.569 129.295,221.226 130.705 M187.208 133.701 C 187.342 133.827,187.020 134.357,183.196 140.306 C 181.545 142.873,180.060 145.192,179.895 145.460 C 179.447 146.188,175.972 151.654,173.668 155.253 C 172.554 156.994,171.643 158.491,171.643 158.579 C 171.643 158.667,174.611 158.740,178.238 158.740 L 184.833 158.740 184.915 152.963 L 184.996 147.187 186.497 147.187 L 187.997 147.187 188.078 152.963 L 188.160 158.740 190.854 158.740 L 193.548 158.740 193.548 160.240 L 193.548 161.740 190.855 161.740 L 188.162 161.740 188.079 166.617 L 187.997 171.493 186.422 171.584 L 184.846 171.674 184.846 166.712 L 184.846 161.750 176.069 161.670 L 167.292 161.590 167.194 160.739 C 167.133 160.206,167.371 159.476,167.829 158.788 C 168.231 158.184,170.893 153.976,173.743 149.437 C 176.593 144.899,179.622 140.105,180.474 138.785 C 181.326 137.464,182.419 135.748,182.903 134.971 C 183.391 134.188,184.055 133.513,184.390 133.458 C 185.032 133.353,187.021 133.524,187.208 133.701 M259.565 133.675 C 259.565 133.798,255.321 140.527,251.328 146.737 C 250.638 147.809,249.695 149.295,249.233 150.038 C 248.770 150.780,247.395 152.941,246.177 154.838 C 244.958 156.736,243.961 158.390,243.961 158.514 C 243.961 158.638,246.932 158.740,250.563 158.740 L 257.164 158.740 257.164 152.888 L 257.164 147.037 258.665 147.037 L 260.165 147.037 260.165 152.888 L 260.165 158.740 263.016 158.740 L 265.866 158.740 265.866 160.240 L 265.866 161.740 263.016 161.740 L 260.165 161.740 260.165 166.692 L 260.165 171.643 258.665 171.643 L 257.164 171.643 257.164 166.692 L 257.164 161.740 248.312 161.740 L 239.460 161.740 239.460 160.725 C 239.460 159.912,241.108 157.110,247.757 146.622 L 256.053 133.533 257.809 133.533 C 258.775 133.533,259.565 133.597,259.565 133.675 M225.568 134.957 C 225.675 135.247,225.880 135.563,226.024 135.661 C 226.959 136.292,227.719 142.976,227.162 145.661 C 226.423 149.220,223.383 150.981,220.412 149.570 C 219.037 148.918,218.305 149.248,218.305 150.520 L 218.305 151.388 221.091 151.411 L 223.878 151.434 225.234 152.761 C 225.980 153.491,226.954 154.662,227.399 155.363 C 228.469 157.052,228.477 157.045,228.977 154.018 L 229.411 151.398 231.327 150.117 C 233.921 148.384,234.878 148.462,233.913 150.329 L 233.443 151.238 234.539 151.238 L 235.636 151.238 235.483 148.912 C 235.218 144.889,232.896 140.382,229.499 137.296 C 227.306 135.305,225.244 134.078,225.568 134.957 M204.951 136.333 C 200.938 139.490,198.368 144.093,197.862 149.027 L 197.667 150.938 198.533 150.942 C 199.010 150.944,199.710 151.029,200.089 151.130 L 200.777 151.315 200.260 150.230 C 199.301 148.219,201.054 148.422,203.404 150.594 C 204.888 151.966,204.953 152.091,204.983 153.657 L 205.014 155.289 205.358 154.194 C 206.017 152.092,206.599 151.743,209.080 151.967 C 211.175 152.156,211.286 152.133,212.006 151.357 C 213.111 150.164,212.956 149.844,211.178 149.643 C 204.479 148.884,202.586 145.364,205.216 138.560 C 205.774 137.116,206.334 135.934,206.459 135.934 C 206.585 135.934,206.765 135.731,206.860 135.484 C 207.138 134.760,206.707 134.951,204.951 136.333 M322.731 152.287 C 322.566 152.343,321.924 152.474,321.305 152.577 L 320.180 152.765 320.180 156.675 L 320.180 160.584 320.949 159.979 C 321.999 159.153,323.658 158.644,324.560 158.870 C 325.229 159.038,325.370 158.907,325.909 157.623 C 326.408 156.431,327.206 154.689,327.609 153.909 C 327.660 153.811,327.098 153.743,326.361 153.759 C 325.285 153.783,324.851 153.626,324.159 152.963 C 323.686 152.509,323.238 152.149,323.164 152.162 C 323.091 152.175,322.896 152.231,322.731 152.287 M198.050 154.516 C 198.050 156.495,200.801 162.826,201.800 163.146 C 201.994 163.208,202.069 161.658,202.011 158.777 L 201.921 154.312 200.811 154.129 C 198.750 153.788,198.050 153.886,198.050 154.516 M232.200 158.065 C 232.150 160.169,232.138 161.943,232.176 162.008 C 232.525 162.617,234.883 157.649,235.400 155.214 L 235.607 154.239 233.949 154.239 L 232.292 154.239 232.200 158.065 M171.903 180.742 C 172.413 182.865,172.547 182.863,173.317 180.720 C 174.133 178.450,174.634 178.500,175.417 180.926 C 176.083 182.991,176.257 183.009,176.581 181.048 C 176.807 179.684,177.463 178.563,177.824 178.924 C 178.061 179.162,177.176 183.401,176.697 184.321 C 176.199 185.277,175.649 184.868,175.081 183.121 C 174.293 180.695,174.204 180.680,173.608 182.884 C 172.821 185.791,172.243 185.600,171.245 182.102 C 170.814 180.592,170.537 179.235,170.629 179.085 C 171.008 178.473,171.516 179.135,171.903 180.742 M187.702 179.147 C 188.494 179.448,188.592 180.295,187.809 180.083 C 187.583 180.022,187.168 179.907,186.889 179.828 C 186.597 179.745,186.054 180.010,185.613 180.451 C 184.042 182.023,185.104 184.173,187.280 183.825 C 188.491 183.632,189.013 184.265,187.972 184.664 C 184.769 185.893,182.341 181.916,184.925 179.670 C 185.951 178.778,186.473 178.679,187.702 179.147 M204.079 179.160 C 204.749 179.518,204.532 180.179,203.833 179.910 C 203.303 179.707,202.551 180.237,202.551 180.813 C 202.551 181.096,202.847 181.160,203.601 181.037 L 204.651 180.867 204.651 182.856 C 204.651 184.425,204.556 184.846,204.201 184.846 C 203.860 184.846,203.751 184.477,203.751 183.324 C 203.751 181.172,202.748 181.260,202.609 183.424 C 202.434 186.148,201.650 185.240,201.650 182.313 C 201.650 179.248,202.408 178.265,204.079 179.160 M213.289 181.905 L 213.374 184.767 211.876 184.801 C 210.236 184.838,209.452 184.199,209.452 182.825 C 209.452 182.027,211.097 180.855,211.928 181.060 C 212.362 181.167,212.453 180.981,212.453 179.992 C 212.453 177.284,213.202 178.999,213.289 181.905 M219.655 179.995 C 219.655 181.080,219.707 181.145,220.582 181.145 C 221.744 181.145,222.045 181.617,222.051 183.446 C 222.057 185.278,221.349 185.238,221.213 183.398 C 221.067 181.422,219.655 181.511,219.655 183.496 C 219.655 184.496,219.538 184.846,219.205 184.846 C 218.734 184.846,218.503 179.496,218.955 179.045 C 219.414 178.586,219.655 178.913,219.655 179.995 M252.063 180.193 C 252.063 181.130,252.132 181.203,252.992 181.179 C 254.149 181.146,254.453 181.610,254.459 183.421 C 254.462 184.490,254.351 184.846,254.014 184.846 C 253.681 184.846,253.563 184.498,253.563 183.514 C 253.563 182.097,253.311 181.731,252.540 182.027 C 252.204 182.156,252.063 182.600,252.063 183.528 C 252.063 184.500,251.945 184.846,251.613 184.846 C 251.147 184.846,250.909 179.499,251.355 179.053 C 251.735 178.673,252.063 179.200,252.063 180.193 M198.050 180.612 C 198.050 180.954,198.245 181.162,198.542 181.137 C 198.813 181.114,199.095 181.264,199.168 181.470 C 199.246 181.693,199.045 181.845,198.675 181.845 C 198.160 181.845,198.050 182.032,198.050 182.896 C 198.050 183.760,198.160 183.946,198.675 183.946 C 199.516 183.946,199.249 184.667,198.360 184.797 C 197.395 184.939,197.159 184.406,197.154 182.071 C 197.150 180.468,197.243 180.045,197.599 180.045 C 197.847 180.045,198.050 180.300,198.050 180.612 M216.862 180.624 C 216.946 180.944,217.188 181.137,217.404 181.054 C 217.945 180.846,218.323 181.556,217.832 181.859 C 217.613 181.995,217.325 182.039,217.194 181.958 C 217.062 181.877,216.954 182.291,216.954 182.878 C 216.954 183.760,217.063 183.946,217.579 183.946 C 217.946 183.946,218.153 184.101,218.080 184.321 C 217.623 185.691,216.202 184.671,216.054 182.867 C 215.845 180.313,216.387 178.808,216.862 180.624 M249.297 180.570 C 249.415 180.859,249.704 181.095,249.937 181.095 C 250.171 181.095,250.419 181.264,250.488 181.470 C 250.559 181.686,250.361 181.845,250.022 181.845 C 249.676 181.845,249.365 182.105,249.268 182.475 C 249.034 183.368,249.330 183.946,250.020 183.946 C 250.360 183.946,250.560 184.106,250.489 184.321 C 250.342 184.769,249.096 185.002,248.748 184.647 C 248.452 184.345,248.103 180.683,248.334 180.309 C 248.600 179.880,249.066 180.006,249.297 180.570 M259.960 180.675 C 260.050 181.022,260.241 181.234,260.384 181.145 C 260.710 180.944,261.563 181.448,261.316 181.695 C 261.215 181.796,260.841 181.900,260.485 181.926 C 259.519 181.999,259.718 183.754,260.707 183.894 C 261.561 184.015,261.413 184.660,260.500 184.794 C 259.318 184.968,258.965 184.350,258.965 182.109 C 258.965 180.029,259.565 179.165,259.960 180.675 M181.170 181.619 C 182.086 182.352,181.611 183.346,180.345 183.346 C 179.652 183.346,179.145 183.489,179.145 183.685 C 179.145 183.907,179.516 183.964,180.214 183.851 C 181.109 183.706,181.268 183.760,181.187 184.187 C 181.049 184.914,179.254 185.038,178.517 184.371 C 176.648 182.680,179.195 180.039,181.170 181.619 M191.775 181.896 C 192.538 183.322,192.002 184.689,190.642 184.788 C 189.656 184.859,189.320 184.756,189.081 184.309 C 188.691 183.580,189.422 182.446,190.282 182.446 C 190.613 182.446,190.808 182.323,190.715 182.174 C 190.623 182.024,190.277 181.972,189.947 182.059 C 189.539 182.165,189.347 182.068,189.347 181.752 C 189.347 180.821,191.260 180.934,191.775 181.896 M195.874 181.618 C 196.436 182.069,196.371 184.846,195.799 184.846 C 195.476 184.846,195.349 184.517,195.349 183.683 C 195.349 182.294,194.701 181.562,193.993 182.150 C 193.674 182.415,193.592 182.821,193.720 183.503 C 193.886 184.389,193.474 185.172,193.059 184.757 C 192.780 184.478,192.703 181.698,192.964 181.379 C 193.268 181.010,195.327 181.179,195.874 181.618 M206.918 181.232 C 207.467 180.776,208.844 181.408,208.893 182.138 C 209.023 184.068,208.963 184.659,208.627 184.771 C 208.375 184.855,208.252 184.552,208.252 183.842 C 208.252 182.562,207.498 181.651,206.870 182.172 C 206.640 182.363,206.452 183.043,206.452 183.683 C 206.452 184.517,206.324 184.846,206.002 184.846 C 205.653 184.846,205.551 184.452,205.551 183.096 C 205.551 181.269,205.756 180.730,206.259 181.233 C 206.457 181.430,206.679 181.430,206.918 181.232 M226.073 181.852 C 226.947 182.690,226.497 183.346,225.048 183.346 C 224.256 183.346,223.891 183.459,224.018 183.665 C 224.127 183.841,224.574 183.962,225.011 183.934 C 226.241 183.854,226.358 183.912,225.956 184.396 C 225.426 185.035,223.963 184.954,223.256 184.246 C 221.391 182.381,224.167 180.023,226.073 181.852 M232.033 181.781 C 233.222 182.816,232.179 184.846,230.458 184.846 C 229.690 184.846,229.557 184.960,229.557 185.621 C 229.557 186.108,229.418 186.350,229.182 186.273 C 228.805 186.148,228.472 182.159,228.774 181.374 C 228.967 180.871,231.326 181.166,232.033 181.781 M235.784 181.619 C 235.992 181.785,236.159 182.572,236.159 183.383 L 236.159 184.846 234.819 184.846 C 233.824 184.846,233.403 184.704,233.183 184.292 C 232.802 183.580,233.545 182.446,234.393 182.446 C 234.724 182.446,234.919 182.323,234.826 182.174 C 234.734 182.024,234.388 181.972,234.058 182.059 C 233.651 182.165,233.458 182.068,233.458 181.755 C 233.458 180.936,234.830 180.855,235.784 181.619 M240.360 181.382 C 240.360 182.183,239.552 183.387,238.905 183.551 L 238.110 183.753 239.099 184.012 C 240.938 184.493,240.406 186.347,238.430 186.347 C 236.573 186.347,235.727 185.272,236.798 184.275 C 237.387 183.725,237.399 183.643,236.948 183.191 C 236.242 182.486,236.389 181.928,237.428 181.361 C 237.860 181.126,240.360 181.144,240.360 181.382 M243.220 181.380 C 244.933 182.096,244.725 183.346,242.893 183.346 C 241.977 183.346,241.592 183.455,241.728 183.675 C 241.840 183.856,242.327 183.946,242.809 183.875 C 243.776 183.733,244.276 184.163,243.624 184.575 C 241.624 185.842,239.438 183.340,241.097 181.682 C 241.963 180.815,241.893 180.825,243.220 181.380 M258.004 183.141 L 258.094 184.846 256.916 184.846 C 254.854 184.846,254.357 183.176,256.238 182.566 C 256.845 182.369,257.115 182.151,256.909 182.023 C 256.719 181.906,256.429 181.893,256.264 181.995 C 255.686 182.353,255.238 181.779,255.785 181.380 C 256.961 180.519,257.906 181.269,258.004 183.141 M210.778 182.473 C 210.356 182.940,210.336 183.114,210.660 183.505 C 211.262 184.231,212.287 183.938,212.394 183.010 C 212.512 181.990,211.515 181.659,210.778 182.473 M224.129 182.169 C 223.821 182.364,223.931 182.438,224.531 182.441 C 225.427 182.446,225.589 182.299,224.954 182.055 C 224.733 181.970,224.361 182.021,224.129 182.169 M230.075 182.186 C 229.267 182.638,229.396 183.946,230.248 183.946 C 231.006 183.946,231.658 183.438,231.658 182.846 C 231.658 182.260,230.675 181.850,230.075 182.186 M237.809 182.146 C 237.385 182.832,238.102 183.238,238.860 182.741 C 239.260 182.478,239.260 182.413,238.860 182.150 C 238.285 181.773,238.040 181.772,237.809 182.146 M189.947 183.646 C 189.947 183.811,190.142 183.946,190.380 183.946 C 190.618 183.946,190.896 183.811,190.998 183.646 C 191.100 183.481,190.905 183.346,190.565 183.346 C 190.226 183.346,189.947 183.481,189.947 183.646 M234.059 183.646 C 234.059 183.811,234.253 183.946,234.491 183.946 C 234.729 183.946,235.007 183.811,235.109 183.646 C 235.211 183.481,235.016 183.346,234.676 183.346 C 234.337 183.346,234.059 183.481,234.059 183.646 M256.264 183.646 C 256.264 183.811,256.467 183.946,256.714 183.946 C 256.962 183.946,257.164 183.811,257.164 183.646 C 257.164 183.481,256.962 183.346,256.714 183.346 C 256.467 183.346,256.264 183.481,256.264 183.646 M237.209 185.146 C 237.097 185.328,237.512 185.446,238.260 185.446 C 239.007 185.446,239.422 185.328,239.310 185.146 C 239.208 184.981,238.735 184.846,238.260 184.846 C 237.784 184.846,237.311 184.981,237.209 185.146 M200.927 189.497 C 200.704 190.385,199.949 190.357,200.089 189.466 C 200.271 188.310,200.453 188.030,200.798 188.375 C 200.984 188.561,201.040 189.048,200.927 189.497 M211.190 190.797 C 211.260 192.769,211.368 193.248,211.740 193.248 C 211.995 193.248,212.147 193.417,212.078 193.623 C 212.009 193.830,211.627 193.998,211.228 193.998 C 210.516 193.998,210.501 193.944,210.416 191.044 C 210.349 188.740,210.415 188.118,210.716 188.217 C 210.979 188.305,211.131 189.128,211.190 190.797 M222.056 190.004 L 222.056 191.860 222.931 191.021 C 224.012 189.986,224.833 190.258,223.834 191.321 C 223.131 192.069,223.261 192.513,224.456 193.452 C 224.848 193.760,224.833 193.834,224.334 194.027 C 223.915 194.189,223.576 194.034,223.073 193.449 C 222.215 192.451,222.056 192.447,222.056 193.423 C 222.056 193.910,221.916 194.152,221.680 194.074 C 221.298 193.948,220.968 189.368,221.283 188.547 C 221.666 187.550,222.056 188.286,222.056 190.004 M239.460 188.447 C 239.460 188.612,239.459 188.847,239.457 188.969 C 239.456 189.091,239.222 189.192,238.937 189.194 C 238.163 189.199,238.112 190.139,238.875 190.339 C 239.562 190.518,239.420 191.148,238.692 191.148 C 238.373 191.148,238.260 191.542,238.260 192.648 C 238.260 193.782,238.150 194.149,237.809 194.149 C 237.229 194.149,237.148 189.078,237.719 188.507 C 238.155 188.072,239.460 188.027,239.460 188.447 M226.269 189.455 C 225.869 189.855,225.197 189.248,225.499 188.759 C 225.655 188.507,225.824 188.512,226.146 188.780 C 226.449 189.031,226.486 189.238,226.269 189.455 M188.707 191.367 L 189.281 192.487 189.760 191.341 C 190.245 190.180,191.091 189.947,190.894 191.029 C 190.695 192.119,189.005 195.301,188.527 195.484 C 187.672 195.812,187.391 195.121,188.135 194.519 L 188.819 193.965 188.221 192.781 C 187.893 192.130,187.530 191.294,187.415 190.923 C 187.059 189.772,188.066 190.118,188.707 191.367 M194.449 190.848 C 196.235 192.634,193.571 195.348,191.697 193.652 C 190.499 192.569,191.455 190.248,193.098 190.248 C 193.511 190.248,194.119 190.518,194.449 190.848 M196.608 191.673 C 196.738 193.706,197.822 193.780,198.050 191.771 C 198.296 189.594,198.950 189.860,198.950 192.138 L 198.950 194.078 197.684 194.095 C 195.965 194.119,195.649 193.772,195.649 191.861 C 195.649 189.693,196.470 189.531,196.608 191.673 M203.969 190.750 C 204.033 190.943,203.774 191.146,203.393 191.200 C 202.797 191.284,202.688 191.495,202.609 192.723 C 202.545 193.724,202.389 194.149,202.084 194.149 C 201.648 194.149,201.416 190.882,201.823 190.475 C 202.131 190.167,203.848 190.387,203.969 190.750 M207.285 190.715 C 208.480 191.551,208.177 192.648,206.752 192.648 C 206.059 192.648,205.551 192.792,205.551 192.987 C 205.551 193.209,205.923 193.267,206.621 193.153 C 207.516 193.008,207.674 193.063,207.593 193.489 C 207.444 194.278,205.514 194.336,204.823 193.573 C 203.209 191.789,205.319 189.338,207.285 190.715 M215.754 190.848 C 217.554 192.648,214.891 195.361,213.002 193.652 C 211.805 192.569,212.760 190.248,214.404 190.248 C 214.816 190.248,215.424 190.518,215.754 190.848 M220.161 190.900 C 221.018 191.705,221.047 192.629,220.243 193.492 C 219.050 194.773,216.954 194.015,216.954 192.302 C 216.954 190.505,218.855 189.674,220.161 190.900 M226.407 192.198 C 226.407 193.332,226.274 193.993,226.032 194.074 C 225.756 194.165,225.656 193.665,225.656 192.198 C 225.656 190.731,225.756 190.231,226.032 190.323 C 226.274 190.404,226.407 191.064,226.407 192.198 M230.524 190.757 C 231.213 191.381,231.296 194.149,230.625 194.149 C 230.332 194.149,230.162 193.745,230.100 192.904 C 229.984 191.339,229.161 190.678,228.475 191.598 C 228.229 191.928,228.093 192.447,228.172 192.752 C 228.342 193.406,228.104 194.149,227.725 194.149 C 227.577 194.149,227.457 193.300,227.457 192.262 L 227.457 190.375 228.723 190.325 C 229.526 190.293,230.185 190.451,230.524 190.757 M234.982 190.558 C 234.997 190.692,234.920 190.968,234.544 192.130 C 234.449 192.423,234.065 192.786,233.690 192.936 C 233.025 193.203,233.024 193.211,233.647 193.229 C 235.222 193.276,235.361 195.018,233.825 195.458 C 231.929 196.002,230.701 194.771,231.861 193.490 C 232.247 193.064,232.282 192.852,232.011 192.581 C 230.993 191.563,232.049 190.223,233.778 190.339 C 234.432 190.383,234.974 190.481,234.982 190.558 M243.039 191.038 C 244.501 192.897,242.058 195.235,240.309 193.652 C 239.121 192.577,240.065 190.248,241.689 190.248 C 242.118 190.248,242.672 190.572,243.039 191.038 M246.662 190.636 C 246.662 190.839,246.358 191.139,245.986 191.302 C 245.465 191.530,245.290 191.889,245.219 192.873 C 245.168 193.575,245.000 194.149,244.844 194.149 C 244.530 194.149,244.515 194.065,244.515 192.348 C 244.515 191.688,244.525 190.967,244.538 190.746 C 244.568 190.223,246.662 190.114,246.662 190.636 M192.362 191.581 C 191.552 192.558,192.893 193.733,193.792 192.834 C 194.174 192.451,194.213 192.217,193.961 191.817 C 193.523 191.122,192.829 191.019,192.362 191.581 M205.551 191.448 C 205.201 191.675,205.283 191.740,205.926 191.743 C 206.380 191.746,206.752 191.613,206.752 191.448 C 206.752 191.068,206.138 191.068,205.551 191.448 M213.667 191.581 C 212.857 192.558,214.198 193.733,215.097 192.834 C 215.479 192.451,215.518 192.217,215.267 191.817 C 214.828 191.122,214.134 191.019,213.667 191.581 M218.158 191.594 C 217.382 192.529,218.698 193.733,219.557 192.874 C 219.918 192.514,219.942 192.285,219.674 191.783 C 219.276 191.040,218.679 190.965,218.158 191.594 M232.764 191.342 C 232.373 191.733,232.560 192.048,233.183 192.048 C 233.533 192.048,233.756 191.891,233.690 191.692 C 233.544 191.253,233.042 191.064,232.764 191.342 M240.939 191.623 C 240.482 192.174,240.872 193.039,241.647 193.191 C 242.396 193.339,242.863 192.193,242.289 191.619 C 241.696 191.026,241.434 191.027,240.939 191.623 M232.258 194.449 C 232.258 194.614,232.663 194.749,233.158 194.749 C 233.653 194.749,234.059 194.614,234.059 194.449 C 234.059 194.284,233.653 194.149,233.158 194.149 C 232.663 194.149,232.258 194.284,232.258 194.449 M78.021 195.191 C 78.019 196.214,74.944 199.407,73.648 199.732 C 72.174 200.102,72.993 200.300,75.994 200.300 C 77.686 200.300,79.495 200.395,80.014 200.511 C 81.625 200.872,81.734 199.062,80.213 197.225 C 79.584 196.466,78.834 195.497,78.547 195.072 L 78.023 194.299 78.021 195.191 M154.614 194.647 C 154.407 194.731,154.239 194.999,154.239 195.245 C 154.239 195.881,155.557 195.634,155.683 194.974 C 155.781 194.461,155.379 194.339,154.614 194.647 " stroke="none" fill="#fcf3f3" fill-rule="evenodd"></path><path id="path1" d="M258.874 64.031 C 257.751 64.437,256.367 65.124,255.798 65.558 C 254.359 66.656,252.960 67.190,251.153 67.331 C 249.093 67.492,248.908 67.724,249.355 69.588 C 250.616 74.844,256.179 76.280,262.152 72.890 C 264.183 71.738,264.138 71.722,265.244 73.968 C 266.335 76.185,266.498 76.281,266.984 74.994 C 267.227 74.350,267.499 74.099,267.875 74.171 C 268.646 74.317,268.773 76.311,268.079 77.367 C 267.134 78.807,267.808 81.154,269.235 81.389 C 273.640 82.114,273.512 70.791,269.061 66.065 C 266.619 63.472,262.623 62.674,258.874 64.031 M213.310 130.928 C 205.206 133.690,201.229 145.513,207.432 148.401 C 209.374 149.304,213.162 149.469,213.471 148.663 C 214.004 147.273,213.240 145.534,211.774 144.803 C 211.410 144.622,210.985 144.110,210.829 143.667 C 210.261 142.052,211.751 140.578,212.743 141.773 C 213.427 142.598,216.255 141.595,218.295 139.803 L 219.353 138.874 220.894 139.428 L 222.434 139.982 222.259 142.384 C 222.049 145.264,221.424 147.462,220.550 148.392 L 219.909 149.075 221.014 149.440 C 225.458 150.907,228.034 146.381,226.722 139.411 C 225.296 131.833,220.169 128.590,213.310 130.928 M336.953 135.611 C 334.084 136.180,330.383 139.906,330.383 142.226 C 330.383 142.694,331.458 142.597,331.878 142.091 C 332.195 141.709,332.436 141.804,333.604 142.767 C 334.350 143.382,336.463 144.629,338.298 145.536 C 341.352 147.047,341.643 147.263,341.723 148.087 C 341.887 149.760,342.015 149.850,343.024 149.001 C 344.110 148.088,344.489 148.129,345.021 149.221 C 345.613 150.435,344.885 151.911,343.396 152.517 C 340.919 153.524,338.381 156.924,336.976 161.116 C 335.812 164.593,335.775 164.436,338.067 165.776 C 343.770 169.113,343.350 171.427,334.981 182.781 C 329.381 190.379,328.733 191.493,329.295 192.561 C 331.338 196.436,334.526 198.650,338.065 198.650 C 348.724 198.650,353.934 190.485,350.320 179.445 C 347.951 172.208,348.313 165.930,351.280 162.791 C 356.348 157.428,356.476 152.315,351.677 146.887 C 350.510 145.566,348.961 143.608,348.235 142.536 C 344.608 137.175,340.813 134.846,336.953 135.611 M320.246 143.061 C 321.948 146.367,321.954 149.285,320.264 151.501 L 319.481 152.528 320.205 152.347 C 320.604 152.248,321.511 152.074,322.222 151.961 C 323.246 151.799,323.475 151.656,323.326 151.272 C 322.632 149.483,322.639 146.346,323.339 144.561 C 323.501 144.149,323.264 143.908,322.238 143.442 C 320.887 142.829,320.044 142.668,320.246 143.061 M328.282 144.036 C 328.282 144.201,328.400 144.336,328.543 144.336 C 329.740 144.336,329.681 150.072,328.467 151.778 C 327.603 152.992,327.667 153.416,328.588 152.583 C 329.507 151.751,330.491 148.206,330.250 146.597 C 330.000 144.928,328.282 142.693,328.282 144.036 M335.484 145.451 C 335.484 145.597,335.650 145.883,335.853 146.086 C 336.541 146.773,336.330 150.155,335.532 151.235 C 334.716 152.340,334.865 152.680,335.948 152.186 C 337.581 151.442,338.066 147.927,336.774 146.196 C 336.173 145.392,335.484 144.994,335.484 145.451 M331.764 156.889 C 331.403 157.473,330.122 161.280,330.245 161.403 C 330.421 161.579,333.759 158.662,333.914 158.197 C 333.980 158.000,333.821 157.839,333.561 157.839 C 333.301 157.839,332.920 157.569,332.714 157.239 C 332.313 156.597,332.013 156.487,331.764 156.889 M128.771 174.255 C 123.004 177.096,120.925 186.212,125.220 189.826 C 127.222 191.511,129.530 189.754,127.982 187.724 C 126.495 185.774,127.392 183.212,129.040 184.703 C 129.888 185.471,131.345 184.338,130.542 183.536 C 129.329 182.322,130.558 181.273,132.012 182.281 C 137.116 185.818,143.391 184.658,141.793 180.474 C 139.956 175.662,132.827 172.257,128.771 174.255 M60.449 179.595 C 58.224 183.393,58.352 188.447,60.673 188.447 C 60.822 188.447,61.478 188.705,62.130 189.020 C 62.782 189.335,63.316 189.481,63.316 189.345 C 63.316 189.208,63.792 188.802,64.373 188.443 C 67.093 186.761,66.764 183.470,63.533 180.039 C 61.677 178.068,61.370 178.024,60.449 179.595 M72.504 191.158 C 69.994 191.910,69.547 194.601,71.311 198.337 L 72.120 200.051 73.384 199.344 C 76.551 197.574,78.213 195.194,77.383 193.616 C 76.169 191.308,74.616 190.526,72.504 191.158 M153.471 193.417 C 150.050 195.468,148.131 197.969,148.818 199.479 C 149.105 200.108,149.069 200.340,148.602 200.867 C 147.996 201.551,148.038 202.551,148.672 202.551 C 148.888 202.551,149.232 202.348,149.437 202.101 C 149.666 201.825,150.324 201.650,151.134 201.650 C 153.290 201.650,155.656 200.339,157.904 197.899 C 161.225 194.296,157.792 190.826,153.471 193.417 M157.238 193.773 C 157.232 194.953,154.773 197.377,152.225 198.715 C 148.055 200.906,149.595 197.377,154.065 194.499 C 155.407 193.635,157.241 193.216,157.238 193.773 M59.036 194.224 C 57.542 195.358,57.524 198.215,59.000 199.849 C 61.127 202.203,63.732 201.122,65.994 196.946 C 66.500 196.011,66.881 195.225,66.841 195.200 C 65.231 194.177,59.965 193.518,59.036 194.224 M319.999 197.271 C 319.910 197.504,319.890 205.941,319.954 216.022 C 320.091 237.445,320.073 237.726,318.505 239.085 L 317.379 240.060 319.358 240.060 C 322.203 240.060,322.242 239.994,322.212 235.184 C 322.198 232.997,322.341 230.398,322.530 229.407 C 322.719 228.417,323.276 224.434,323.768 220.555 C 325.523 206.711,326.408 199.984,326.673 198.457 L 326.836 197.514 324.933 197.667 C 323.570 197.776,322.700 197.682,321.868 197.334 C 320.448 196.741,320.206 196.733,319.999 197.271 M81.620 201.456 C 81.620 202.669,81.774 204.101,81.961 204.639 C 82.218 205.375,82.216 205.669,81.953 205.832 C 81.726 205.972,81.875 206.171,82.376 206.400 C 83.211 206.780,83.942 206.872,83.627 206.558 C 83.520 206.451,84.060 206.046,84.826 205.658 C 85.593 205.270,86.281 204.892,86.355 204.817 C 86.484 204.689,81.968 199.250,81.733 199.250 C 81.671 199.250,81.620 200.242,81.620 201.456 M69.236 201.935 C 65.442 202.683,65.564 207.283,69.425 209.044 C 71.474 209.979,74.146 207.332,74.876 203.644 C 75.009 202.976,75.174 202.821,75.633 202.941 C 76.426 203.149,76.371 203.019,75.394 202.379 C 74.485 201.783,71.205 201.547,69.236 201.935 M88.384 209.132 C 88.276 209.308,87.544 209.452,86.758 209.452 C 83.624 209.452,81.020 210.876,81.020 212.590 C 81.020 214.470,81.918 215.979,83.420 216.625 C 85.969 217.722,87.254 217.222,88.168 214.780 C 89.006 212.540,89.186 207.835,88.384 209.132 M94.428 213.849 C 94.177 214.100,95.188 214.849,95.510 214.650 C 95.644 214.568,95.595 214.310,95.402 214.077 C 95.018 213.614,94.730 213.547,94.428 213.849 M91.382 217.968 C 89.643 219.707,89.693 222.097,91.507 223.911 C 92.932 225.336,93.620 225.354,95.733 224.021 C 98.105 222.526,100.246 219.455,98.916 219.455 C 98.726 219.455,98.032 219.121,97.373 218.713 C 94.875 217.167,92.481 216.869,91.382 217.968 M103.843 219.681 C 101.809 224.411,103.143 230.146,107.283 234.466 C 108.022 235.238,108.627 235.956,108.627 236.061 C 108.627 236.689,98.971 235.853,97.715 235.116 C 95.625 233.892,95.236 234.027,91.616 237.228 C 89.832 238.807,88.068 240.246,87.697 240.427 C 86.513 241.004,86.777 242.364,88.147 242.747 C 89.400 243.097,94.038 242.724,97.684 241.979 C 99.891 241.529,103.112 241.618,118.230 242.550 C 132.675 243.440,136.729 241.190,133.049 234.324 C 130.134 228.884,122.806 224.084,111.843 220.432 C 103.728 217.729,104.646 217.815,103.843 219.681 " stroke="none" fill="#e12f2f" fill-rule="evenodd"></path><path id="path2" d="M262.041 63.223 C 262.329 63.298,262.802 63.298,263.091 63.223 C 263.380 63.147,263.143 63.085,262.566 63.085 C 261.988 63.085,261.752 63.147,262.041 63.223 M268.867 65.866 C 269.427 66.444,269.953 66.917,270.035 66.917 C 270.118 66.917,269.727 66.444,269.167 65.866 C 268.607 65.289,268.082 64.816,267.999 64.816 C 267.917 64.816,268.307 65.289,268.867 65.866 M262.119 72.905 C 260.129 74.082,257.354 74.805,255.332 74.674 L 253.699 74.569 254.006 75.551 C 254.308 76.514,254.340 76.529,255.664 76.337 C 257.052 76.135,260.198 75.084,260.465 74.732 C 260.548 74.623,261.088 74.350,261.665 74.124 C 262.243 73.899,262.966 73.458,263.271 73.146 C 263.577 72.833,264.027 72.654,264.272 72.748 C 264.544 72.853,264.668 72.773,264.591 72.543 C 264.374 71.889,263.660 71.994,262.119 72.905 M264.825 73.818 C 265.135 75.036,266.020 76.062,266.846 76.162 C 267.843 76.281,268.077 76.926,267.361 77.575 C 266.806 78.077,266.807 78.118,267.377 79.618 C 267.696 80.460,267.859 81.249,267.737 81.370 C 267.414 81.694,264.988 83.031,263.728 83.582 C 262.722 84.021,262.665 84.112,262.977 84.787 C 263.406 85.711,263.404 85.711,264.802 84.546 C 268.327 81.608,268.576 81.312,268.116 80.610 C 267.491 79.657,267.476 78.286,268.079 77.367 C 268.783 76.296,268.645 74.355,267.858 74.242 C 267.477 74.187,267.193 74.442,266.967 75.040 C 266.527 76.206,266.408 76.164,265.451 74.494 C 264.986 73.682,264.716 73.391,264.825 73.818 M272.571 76.069 C 272.572 77.389,272.625 77.892,272.688 77.186 C 272.752 76.481,272.751 75.400,272.686 74.786 C 272.622 74.171,272.570 74.749,272.571 76.069 M269.487 86.840 C 268.239 88.860,266.744 89.842,263.986 90.453 C 263.279 90.609,263.108 90.514,262.831 89.804 C 262.298 88.440,262.305 88.118,262.888 87.097 C 263.580 85.886,263.328 85.866,260.765 86.929 C 255.875 88.956,249.499 95.785,251.280 97.087 C 251.960 97.584,251.881 97.824,251.038 97.824 C 250.516 97.824,250.201 98.082,249.913 98.743 C 249.602 99.456,249.361 99.633,248.837 99.535 C 248.466 99.465,248.162 99.519,248.162 99.655 C 248.162 99.902,245.481 99.749,244.486 99.445 C 243.714 99.209,243.864 99.690,244.766 100.349 C 246.688 101.750,250.671 101.096,251.486 99.245 L 251.913 98.275 262.985 98.196 L 274.057 98.117 274.722 97.399 C 275.940 96.085,281.095 95.980,282.240 97.246 C 282.744 97.802,282.735 97.824,282.018 97.824 C 281.507 97.824,281.138 98.085,280.846 98.650 C 280.260 99.787,280.167 99.829,278.098 99.891 C 276.882 99.928,276.185 99.817,276.023 99.561 C 275.841 99.274,275.777 99.269,275.774 99.540 C 275.771 99.752,275.548 99.835,275.244 99.738 C 274.902 99.628,274.980 99.784,275.469 100.186 C 277.366 101.746,281.534 101.186,282.447 99.247 C 282.738 98.630,283.109 98.125,283.273 98.125 C 284.328 98.125,282.097 93.945,279.695 91.421 C 277.495 89.110,275.742 87.870,273.368 86.946 C 270.103 85.675,270.205 85.678,269.487 86.840 M107.923 102.274 C 107.232 103.038,107.304 104.006,108.094 104.559 C 109.765 105.730,111.555 103.719,110.071 102.337 C 109.258 101.580,108.570 101.559,107.923 102.274 M114.329 102.326 C 113.513 103.141,113.574 104.011,114.491 104.612 C 116.135 105.689,117.648 103.550,116.180 102.222 C 115.463 101.573,115.059 101.596,114.329 102.326 M120.630 102.326 C 119.843 103.113,119.869 103.979,120.697 104.559 C 121.863 105.376,123.031 104.784,123.031 103.376 C 123.031 101.894,121.661 101.294,120.630 102.326 M216.733 130.148 C 217.189 130.217,217.865 130.215,218.234 130.144 C 218.603 130.072,218.230 130.016,217.404 130.018 C 216.579 130.021,216.277 130.079,216.733 130.148 M209.192 132.776 C 208.636 133.169,207.922 133.939,207.604 134.487 L 207.026 135.484 207.864 134.503 C 208.325 133.963,209.107 133.191,209.602 132.788 C 210.750 131.853,210.509 131.846,209.192 132.776 M224.023 133.124 C 225.308 134.877,225.400 134.949,225.042 133.921 C 224.860 133.400,224.365 132.746,223.942 132.469 L 223.174 131.965 224.023 133.124 M181.676 137.283 C 180.366 139.345,178.539 142.214,177.615 143.659 C 169.957 155.636,167.442 159.822,167.442 160.591 L 167.442 161.431 176.219 161.511 L 184.996 161.590 185.079 166.617 L 185.161 171.643 186.497 171.643 L 187.832 171.643 187.915 166.617 L 187.997 161.590 190.773 161.504 L 193.548 161.418 193.548 160.079 L 193.548 158.740 190.698 158.740 L 187.847 158.740 187.847 152.888 L 187.847 147.037 186.497 147.037 L 185.146 147.037 185.146 152.888 L 185.146 158.740 178.210 158.740 L 171.274 158.740 171.704 158.065 C 171.941 157.693,173.610 155.054,175.414 152.201 C 177.219 149.347,179.829 145.228,181.216 143.048 C 182.603 140.868,184.522 137.836,185.481 136.309 L 187.224 133.533 185.640 133.533 L 184.057 133.533 181.676 137.283 M253.811 137.445 C 249.897 143.573,245.666 150.237,243.816 153.188 C 242.885 154.674,241.601 156.699,240.962 157.689 C 240.258 158.782,239.794 159.872,239.781 160.461 L 239.760 161.431 248.537 161.511 L 257.314 161.590 257.397 166.617 L 257.479 171.643 258.822 171.643 L 260.165 171.643 260.165 166.542 L 260.165 161.440 263.033 161.440 L 265.901 161.440 265.809 160.165 L 265.716 158.890 262.947 158.804 L 260.178 158.717 260.096 152.952 L 260.015 147.187 258.740 147.095 L 257.464 147.002 257.464 152.871 L 257.464 158.740 250.563 158.740 C 246.767 158.740,243.661 158.679,243.661 158.605 C 243.661 158.530,246.513 153.973,249.998 148.477 C 257.715 136.311,258.296 135.401,259.014 134.359 L 259.583 133.533 257.946 133.533 L 256.309 133.533 253.811 137.445 M331.883 138.635 C 331.530 139.130,331.309 139.535,331.392 139.535 C 331.475 139.535,331.830 139.130,332.183 138.635 C 332.536 138.140,332.757 137.734,332.674 137.734 C 332.592 137.734,332.236 138.140,331.883 138.635 M218.492 139.646 C 216.946 141.290,213.424 142.594,212.743 141.773 C 211.751 140.578,210.261 142.052,210.829 143.667 C 210.985 144.110,211.410 144.622,211.774 144.803 C 213.251 145.539,214.124 147.633,213.417 148.744 C 213.292 148.941,212.450 149.152,211.546 149.214 L 209.902 149.326 211.628 149.382 C 212.577 149.412,213.353 149.569,213.353 149.730 C 213.353 149.902,213.631 149.927,214.029 149.790 C 214.400 149.662,215.379 149.564,216.204 149.573 C 217.029 149.581,217.873 149.428,218.080 149.234 C 218.499 148.838,218.591 148.417,218.206 148.655 C 217.336 149.193,213.220 146.154,212.856 144.706 C 212.718 144.157,212.609 144.078,212.407 144.383 C 212.122 144.814,210.953 143.731,210.953 143.036 C 210.953 142.852,211.164 143.003,211.422 143.372 C 211.829 143.954,211.947 143.985,212.322 143.610 C 212.920 143.012,212.863 142.646,212.086 142.103 C 211.719 141.846,211.568 141.635,211.749 141.635 C 211.931 141.635,212.248 141.838,212.453 142.086 C 213.224 143.015,216.223 142.295,218.605 140.608 C 219.498 139.975,219.989 139.888,220.855 140.210 C 222.099 140.673,222.356 140.694,222.356 140.335 C 222.356 140.026,219.987 138.928,219.332 138.933 C 219.237 138.934,218.859 139.255,218.492 139.646 M227.243 142.986 C 227.245 143.811,227.303 144.113,227.372 143.657 C 227.441 143.201,227.439 142.525,227.368 142.156 C 227.297 141.787,227.240 142.161,227.243 142.986 M316.934 142.245 C 314.114 143.964,313.907 149.994,316.591 152.252 C 317.696 153.182,317.499 153.168,320.776 152.540 L 323.375 152.042 324.340 152.755 C 327.403 155.020,330.683 152.263,330.683 147.423 C 330.683 143.950,326.912 141.317,324.573 143.156 C 324.034 143.580,323.569 143.713,323.107 143.576 C 322.461 143.383,322.456 143.393,323.002 143.809 C 323.316 144.049,323.478 144.399,323.362 144.586 C 322.654 145.731,322.634 149.488,323.326 151.272 C 323.475 151.656,323.246 151.799,322.222 151.961 C 321.511 152.074,320.604 152.248,320.205 152.347 L 319.481 152.528 320.264 151.501 C 321.678 149.647,321.938 146.519,320.859 144.349 C 320.461 143.548,320.312 142.939,320.489 142.830 C 320.793 142.642,318.941 141.635,318.294 141.637 C 318.094 141.637,317.481 141.911,316.934 142.245 M331.878 142.091 C 331.445 142.613,330.481 142.682,330.322 142.203 C 330.252 141.994,330.061 142.051,329.810 142.353 C 329.452 142.783,329.541 142.836,330.628 142.836 C 331.299 142.836,331.928 142.705,332.027 142.546 C 332.125 142.387,332.942 142.825,333.841 143.521 C 334.741 144.217,335.354 144.828,335.203 144.879 C 335.052 144.930,335.121 145.432,335.356 145.994 C 336.110 147.798,335.665 150.401,334.369 151.774 C 334.169 151.986,333.768 152.560,333.479 153.049 C 333.190 153.538,332.845 153.938,332.713 153.938 C 332.580 153.938,332.551 154.255,332.648 154.641 C 332.895 155.624,331.512 157.241,330.431 157.235 C 329.794 157.231,329.724 157.168,330.083 156.926 C 330.420 156.697,330.335 156.667,329.741 156.804 C 328.885 157.002,327.982 156.119,327.982 155.081 C 327.982 154.159,327.152 154.820,326.948 155.906 C 326.610 157.709,328.360 159.308,330.009 158.702 C 330.679 158.456,330.681 158.463,330.234 159.534 C 329.985 160.127,329.782 160.863,329.782 161.168 C 329.782 161.473,329.431 162.490,329.002 163.428 C 328.573 164.366,328.019 165.817,327.771 166.652 C 327.523 167.487,326.943 168.985,326.481 169.982 C 325.554 171.981,325.001 173.695,325.582 172.768 C 325.763 172.479,326.115 172.243,326.364 172.243 C 326.613 172.243,326.745 172.126,326.656 171.983 C 326.330 171.455,329.563 168.042,330.390 168.042 C 330.918 168.042,332.812 167.363,333.748 166.838 C 334.539 166.395,336.670 165.976,336.829 166.233 C 336.906 166.358,337.311 166.396,337.727 166.316 C 338.171 166.231,338.485 166.310,338.485 166.507 C 338.485 166.691,338.671 166.842,338.898 166.842 C 339.593 166.842,340.027 167.576,339.603 168.033 C 339.305 168.355,339.340 168.393,339.784 168.236 C 340.087 168.129,340.479 168.042,340.656 168.042 C 341.272 168.042,339.885 166.840,337.990 165.732 C 335.882 164.498,335.901 164.540,336.531 162.463 C 337.061 160.716,337.046 160.840,336.732 160.840 C 336.593 160.840,336.296 161.617,336.070 162.566 C 335.611 164.499,335.426 164.756,334.105 165.296 C 330.779 166.656,329.010 163.185,331.777 160.728 C 333.901 158.842,333.918 158.840,336.759 160.279 C 337.098 160.451,337.284 160.431,337.284 160.224 C 337.284 158.464,341.342 153.331,343.375 152.517 C 344.885 151.913,345.618 150.445,345.021 149.221 C 344.489 148.129,344.110 148.088,343.024 149.001 C 342.015 149.850,341.887 149.760,341.723 148.087 C 341.643 147.263,341.352 147.047,338.298 145.536 C 336.463 144.629,334.350 143.382,333.604 142.767 C 332.436 141.804,332.195 141.709,331.878 142.091 M221.777 142.161 C 221.859 143.040,222.315 143.531,222.334 142.761 C 222.346 142.307,222.221 141.935,222.056 141.935 C 221.890 141.935,221.765 142.037,221.777 142.161 M329.445 144.507 C 330.766 146.186,330.246 151.082,328.588 152.583 C 327.667 153.416,327.603 152.992,328.467 151.778 C 329.681 150.072,329.740 144.336,328.543 144.336 C 328.400 144.336,328.282 144.201,328.282 144.036 C 328.282 143.499,328.825 143.719,329.445 144.507 M319.020 144.336 C 320.515 144.336,320.405 149.998,318.900 150.489 C 317.761 150.860,317.645 150.826,317.104 149.962 C 315.881 148.007,316.809 143.631,318.329 144.189 C 318.549 144.270,318.860 144.336,319.020 144.336 M221.635 144.968 C 221.561 145.198,221.339 145.926,221.141 146.587 C 220.943 147.247,220.494 148.125,220.143 148.537 L 219.505 149.287 220.336 148.555 C 221.095 147.885,222.257 145.038,221.912 144.692 C 221.833 144.614,221.709 144.738,221.635 144.968 M226.898 145.137 C 226.875 145.495,226.779 146.035,226.684 146.337 C 226.521 146.857,226.530 146.858,226.854 146.353 C 227.042 146.059,227.138 145.519,227.067 145.153 C 226.939 144.487,226.938 144.487,226.898 145.137 M326.849 145.184 C 326.804 145.402,326.905 145.495,327.075 145.391 C 328.221 144.683,328.231 150.068,327.086 150.995 C 325.297 152.443,323.154 147.706,324.837 146.024 C 325.087 145.773,325.274 145.460,325.251 145.327 C 325.151 144.739,325.335 144.602,326.107 144.691 C 326.600 144.748,326.899 144.946,326.849 145.184 M336.774 146.196 C 338.066 147.927,337.581 151.442,335.948 152.186 C 334.865 152.680,334.716 152.340,335.532 151.235 C 336.330 150.155,336.541 146.773,335.853 146.086 C 335.650 145.883,335.484 145.597,335.484 145.451 C 335.484 144.994,336.173 145.392,336.774 146.196 M339.608 146.791 C 340.063 146.979,340.597 147.107,340.795 147.075 C 340.995 147.043,341.238 147.520,341.343 148.152 C 341.634 149.901,341.748 150.116,342.274 149.914 C 342.773 149.723,342.765 150.252,342.246 151.688 C 342.125 152.024,342.141 152.156,342.282 151.988 C 342.422 151.823,342.806 151.688,343.136 151.688 C 343.530 151.688,343.707 151.516,343.653 151.185 C 343.548 150.551,344.135 150.166,344.560 150.591 C 345.023 151.054,344.455 151.629,342.598 152.576 C 341.739 153.014,340.698 153.825,340.285 154.377 C 339.872 154.928,339.430 155.316,339.302 155.237 C 339.175 155.159,339.107 155.232,339.152 155.401 C 339.518 156.762,336.232 158.253,334.307 157.599 C 333.904 157.462,335.508 153.972,336.056 153.794 C 338.064 153.144,338.923 148.923,337.529 146.560 L 336.886 145.470 337.833 145.960 C 338.354 146.229,339.153 146.604,339.608 146.791 M351.821 147.037 C 353.792 149.254,353.994 149.444,353.263 148.387 C 352.921 147.892,352.126 147.014,351.498 146.437 C 350.585 145.598,350.650 145.718,351.821 147.037 M344.692 149.006 C 344.743 149.161,344.381 149.302,343.887 149.319 C 343.081 149.348,343.043 149.311,343.513 148.954 C 344.073 148.529,344.541 148.550,344.692 149.006 M219.631 152.526 C 220.448 154.675,216.332 156.788,213.360 155.746 C 211.991 155.265,210.490 153.596,210.770 152.866 C 210.957 152.378,207.566 152.002,206.780 152.423 C 206.167 152.751,205.101 155.717,205.212 156.789 C 205.315 157.783,207.408 163.939,207.902 164.696 C 208.154 165.084,208.394 166.165,208.434 167.097 C 208.474 168.029,208.517 168.893,208.530 169.017 C 208.542 169.141,208.755 169.242,209.002 169.242 C 209.250 169.242,209.452 169.386,209.452 169.563 C 209.452 169.746,209.708 169.802,210.051 169.693 C 210.510 169.547,210.607 169.612,210.469 169.973 C 210.369 170.231,210.438 170.443,210.621 170.443 C 210.803 170.443,210.953 170.293,210.953 170.110 C 210.953 169.914,211.168 169.864,211.478 169.988 C 211.767 170.104,212.341 170.243,212.753 170.298 C 215.097 170.609,216.055 170.858,216.059 171.157 C 216.062 171.404,216.122 171.404,216.284 171.158 C 216.478 170.862,218.493 170.511,220.930 170.348 C 221.384 170.317,221.755 170.205,221.755 170.097 C 221.755 169.990,222.431 169.740,223.257 169.542 C 224.082 169.344,224.834 169.058,224.928 168.907 C 225.021 168.756,225.214 168.704,225.356 168.792 C 225.734 169.026,226.035 168.403,226.139 167.172 C 226.226 166.138,227.567 161.548,228.094 160.478 C 228.514 159.625,228.762 157.491,228.465 157.284 C 228.312 157.177,227.550 156.188,226.772 155.086 C 224.691 152.139,224.210 151.838,221.572 151.838 C 219.400 151.838,219.373 151.847,219.631 152.526 M355.058 153.338 C 355.058 153.916,355.120 154.152,355.196 153.863 C 355.271 153.575,355.271 153.102,355.196 152.813 C 355.120 152.524,355.058 152.761,355.058 153.338 M202.251 156.929 C 202.251 160.863,202.394 161.101,202.709 157.689 C 202.983 154.728,202.965 154.232,202.566 153.834 C 202.345 153.613,202.251 154.545,202.251 156.929 M231.058 154.089 C 230.789 154.413,230.781 154.539,231.030 154.539 C 231.222 154.539,231.374 154.974,231.372 155.514 C 231.369 156.050,231.480 157.299,231.618 158.290 C 231.856 159.994,231.872 159.918,231.914 156.864 C 231.957 153.695,231.802 153.192,231.058 154.089 M355.034 156.089 C 355.009 156.530,354.911 157.138,354.816 157.440 C 354.653 157.959,354.662 157.960,354.985 157.457 C 355.173 157.164,355.271 156.556,355.203 156.106 L 355.079 155.289 355.034 156.089 M332.714 157.239 C 332.920 157.569,333.301 157.839,333.561 157.839 C 334.321 157.839,333.911 158.454,332.087 160.046 C 330.002 161.867,329.915 161.807,330.860 159.204 C 331.917 156.290,332.040 156.161,332.714 157.239 M322.727 159.438 C 322.231 159.631,321.387 160.055,320.852 160.380 L 319.880 160.970 319.880 165.688 C 319.880 170.834,320.067 171.467,320.930 169.242 C 321.243 168.438,321.627 167.859,321.786 167.957 C 321.944 168.055,321.992 168.003,321.893 167.843 C 321.794 167.682,322.026 166.901,322.408 166.107 C 322.849 165.193,323.169 164.815,323.281 165.077 C 323.378 165.305,323.385 165.139,323.297 164.709 C 323.197 164.218,323.313 163.752,323.609 163.455 C 323.869 163.196,324.081 162.844,324.081 162.673 C 324.081 162.502,324.424 161.748,324.843 160.998 L 325.604 159.634 324.823 159.337 C 323.898 158.985,323.887 158.986,322.727 159.438 M352.875 160.915 C 352.318 161.617,352.099 162.000,352.389 161.767 C 352.935 161.328,354.221 159.640,354.009 159.640 C 353.943 159.640,353.433 160.214,352.875 160.915 M348.827 171.493 C 348.879 173.473,349.074 175.431,349.260 175.844 C 349.557 176.503,349.575 176.448,349.406 175.394 C 349.300 174.734,349.105 172.776,348.974 171.043 L 348.734 167.892 348.827 171.493 M340.969 168.923 C 340.944 169.264,341.049 169.542,341.204 169.542 C 341.359 169.542,341.485 169.685,341.485 169.860 C 341.485 170.035,341.317 170.077,341.110 169.953 C 340.852 169.798,340.863 169.885,341.144 170.232 C 342.618 172.049,339.183 176.239,336.637 175.730 C 336.155 175.633,335.529 175.678,335.247 175.829 C 334.965 175.980,331.965 176.267,328.582 176.468 C 321.008 176.917,321.689 176.901,320.705 176.646 L 319.880 176.433 319.880 186.809 C 319.880 193.810,319.980 197.123,320.187 196.995 C 320.356 196.890,321.100 197.036,321.839 197.319 C 322.811 197.690,323.685 197.787,324.983 197.669 C 325.972 197.580,326.781 197.595,326.780 197.703 C 326.779 197.811,326.644 198.710,326.481 199.700 C 325.989 202.679,325.239 209.510,325.388 209.659 C 325.651 209.922,325.845 208.684,326.480 202.701 C 327.156 196.336,328.184 192.431,329.092 192.779 C 329.410 192.902,329.427 192.806,329.173 192.332 C 328.748 191.537,329.792 189.821,334.981 182.781 C 340.711 175.007,341.785 173.110,341.785 170.767 C 341.785 169.289,341.064 167.660,340.969 168.923 M138.335 175.938 C 138.335 175.989,138.773 176.428,139.310 176.913 L 140.285 177.794 139.404 176.819 C 138.582 175.910,138.335 175.706,138.335 175.938 M60.315 179.343 C 59.820 180.124,59.416 180.905,59.418 181.079 C 59.419 181.253,59.830 180.682,60.330 179.810 C 61.258 178.191,61.370 178.156,62.560 179.115 C 63.120 179.567,63.131 179.563,62.735 179.053 C 61.745 177.777,61.272 177.834,60.315 179.343 M349.896 177.944 C 349.893 178.332,351.666 183.444,351.676 183.078 C 351.692 182.500,350.555 178.795,350.193 178.245 C 350.030 177.997,349.896 177.862,349.896 177.944 M170.748 179.520 C 170.761 180.338,172.149 184.365,172.454 184.466 C 172.633 184.526,173.092 183.701,173.476 182.632 C 174.298 180.339,174.398 180.354,175.245 182.899 C 176.073 185.387,176.188 185.353,177.037 182.371 C 177.425 181.009,177.802 179.726,177.876 179.520 C 177.949 179.314,177.863 179.145,177.685 179.145 C 177.507 179.145,177.140 179.921,176.869 180.870 C 176.190 183.255,175.991 183.337,175.405 181.473 C 174.465 178.483,174.197 178.463,173.334 181.320 C 172.861 182.886,172.243 183.639,172.243 182.650 C 172.243 181.844,171.310 179.145,171.031 179.145 C 170.872 179.145,170.745 179.314,170.748 179.520 M184.842 180.004 C 183.322 181.523,183.710 183.627,185.659 184.442 C 186.765 184.904,188.652 184.520,188.275 183.910 C 188.181 183.759,187.873 183.771,187.558 183.940 C 187.193 184.136,186.706 184.131,186.117 183.926 C 183.648 183.065,184.429 179.489,187.011 179.835 C 187.821 179.944,188.144 179.885,188.065 179.644 C 187.802 178.843,185.776 179.069,184.842 180.004 M202.323 179.492 C 201.862 179.953,201.792 184.980,202.251 184.696 C 202.416 184.594,202.551 183.911,202.551 183.178 C 202.551 181.957,202.613 181.845,203.301 181.845 C 204.002 181.845,204.051 181.944,204.051 183.364 C 204.051 184.299,204.166 184.810,204.351 184.696 C 204.516 184.594,204.651 183.776,204.651 182.878 L 204.651 181.245 203.580 181.245 C 202.641 181.245,202.521 181.162,202.605 180.570 C 202.678 180.052,202.894 179.898,203.530 179.907 C 203.986 179.914,204.313 179.779,204.257 179.607 C 204.105 179.143,202.753 179.063,202.323 179.492 M212.453 180.195 C 212.453 181.088,212.351 181.245,211.770 181.245 C 209.902 181.245,209.008 183.444,210.483 184.411 C 211.024 184.765,211.361 184.810,211.787 184.582 C 212.191 184.365,212.463 184.376,212.707 184.620 C 212.969 184.882,213.053 184.254,213.053 182.056 C 213.053 180.315,212.933 179.145,212.753 179.145 C 212.588 179.145,212.453 179.617,212.453 180.195 M219.055 182.056 C 219.055 184.933,219.510 185.725,219.710 183.196 C 219.866 181.227,221.268 181.414,221.397 183.421 C 221.512 185.220,222.056 185.300,222.056 183.517 C 222.056 181.960,221.409 181.127,220.358 181.328 C 219.719 181.450,219.655 181.357,219.655 180.303 C 219.655 179.666,219.520 179.145,219.355 179.145 C 219.175 179.145,219.055 180.315,219.055 182.056 M251.163 181.828 C 251.163 184.560,251.652 185.885,251.820 183.608 C 251.996 181.236,253.863 181.141,253.863 183.504 C 253.863 184.346,253.980 184.810,254.164 184.696 C 255.273 184.011,254.070 181.078,252.781 181.325 C 252.039 181.467,251.763 181.073,251.763 179.870 C 251.763 179.471,251.628 179.145,251.463 179.145 C 251.285 179.145,251.163 180.239,251.163 181.828 M197.374 180.217 C 196.588 181.015,197.372 184.846,198.321 184.846 C 198.881 184.846,198.895 184.414,198.348 184.031 C 197.516 183.449,197.518 181.845,198.350 181.845 C 198.680 181.845,198.950 181.710,198.950 181.545 C 198.950 181.380,198.689 181.245,198.370 181.245 C 198.013 181.245,197.754 181.005,197.695 180.617 C 197.643 180.271,197.498 180.091,197.374 180.217 M216.054 182.135 C 216.054 184.293,216.780 185.440,217.617 184.604 C 217.814 184.406,217.702 184.238,217.285 184.106 C 216.402 183.825,216.360 181.845,217.237 181.845 C 217.557 181.845,217.903 181.710,218.005 181.545 C 218.110 181.375,217.858 181.245,217.422 181.245 C 216.854 181.245,216.654 181.089,216.654 180.645 C 216.654 180.315,216.519 180.045,216.354 180.045 C 216.183 180.045,216.054 180.942,216.054 182.135 M248.462 182.135 C 248.462 184.293,249.188 185.440,250.025 184.604 C 250.222 184.406,250.110 184.238,249.693 184.106 C 248.796 183.821,248.770 181.845,249.662 181.845 C 249.992 181.845,250.263 181.710,250.263 181.545 C 250.263 181.380,249.992 181.245,249.662 181.245 C 249.262 181.245,249.062 181.045,249.062 180.645 C 249.062 180.315,248.927 180.045,248.762 180.045 C 248.591 180.045,248.462 180.942,248.462 182.135 M259.265 182.091 C 259.265 184.397,259.692 185.151,260.674 184.579 C 261.202 184.272,261.163 184.211,260.390 184.134 C 259.680 184.062,259.735 181.845,260.447 181.845 C 260.787 181.845,261.065 181.710,261.065 181.545 C 261.065 181.380,260.795 181.245,260.465 181.245 C 260.135 181.245,259.865 181.051,259.865 180.813 C 259.865 180.575,259.730 180.297,259.565 180.195 C 259.376 180.078,259.265 180.780,259.265 182.091 M178.526 181.864 C 177.750 182.640,177.873 183.573,178.845 184.287 C 179.596 184.839,180.945 184.777,180.945 184.191 C 180.945 184.034,180.669 183.993,180.331 184.101 C 179.672 184.310,178.743 183.752,179.016 183.312 C 179.106 183.165,179.712 183.046,180.363 183.046 C 181.669 183.046,181.766 182.893,181.078 181.912 C 180.490 181.073,179.339 181.051,178.526 181.864 M189.497 181.545 C 189.389 181.720,189.694 181.845,190.230 181.845 C 190.846 181.845,191.148 181.994,191.148 182.296 C 191.148 182.543,190.889 182.746,190.572 182.746 C 188.318 182.746,188.493 184.610,190.755 184.685 C 191.739 184.718,191.748 184.706,191.748 183.342 C 191.748 181.561,190.234 180.353,189.497 181.545 M192.948 183.105 C 192.948 185.192,193.477 185.446,193.607 183.421 C 193.736 181.414,195.138 181.227,195.294 183.196 C 195.440 185.036,195.949 185.227,195.949 183.443 C 195.949 181.662,195.615 181.287,194.074 181.332 L 192.948 181.364 192.948 183.105 M205.851 183.154 C 205.851 185.163,206.348 185.195,206.507 183.196 C 206.663 181.227,208.065 181.414,208.193 183.421 C 208.314 185.296,208.852 185.265,208.852 183.383 C 208.852 181.660,208.473 181.244,206.955 181.301 L 205.851 181.343 205.851 183.154 M223.411 181.733 C 222.671 182.473,222.931 184.008,223.871 184.457 C 224.687 184.845,225.956 184.675,225.956 184.176 C 225.956 184.011,225.665 183.952,225.308 184.046 C 224.555 184.242,223.457 183.749,223.715 183.331 C 223.812 183.174,224.424 183.046,225.074 183.046 C 226.364 183.046,226.626 182.557,225.785 181.717 C 225.174 181.106,224.030 181.114,223.411 181.733 M228.957 183.681 C 228.957 185.058,229.083 186.047,229.257 186.047 C 229.422 186.047,229.557 185.731,229.557 185.346 C 229.557 184.771,229.715 184.646,230.442 184.646 C 233.081 184.646,232.965 181.450,230.322 181.361 L 228.957 181.315 228.957 183.681 M233.608 181.545 C 233.500 181.720,233.805 181.845,234.341 181.845 C 235.499 181.845,235.604 182.665,234.464 182.801 C 232.579 183.026,232.863 184.618,234.799 184.683 L 235.859 184.718 235.859 183.342 C 235.859 181.561,234.345 180.353,233.608 181.545 M237.284 181.568 C 236.670 181.927,236.615 182.523,237.121 183.333 C 237.419 183.810,237.385 184.021,236.930 184.524 C 236.170 185.363,236.757 186.047,238.236 186.047 C 240.025 186.047,240.801 184.735,239.235 184.360 C 237.901 184.042,237.829 183.886,238.822 183.469 C 239.338 183.252,239.760 182.877,239.760 182.635 C 239.760 182.393,239.829 182.015,239.913 181.795 C 240.105 181.293,238.057 181.117,237.284 181.568 M241.157 181.794 C 239.982 183.092,241.392 185.226,243.072 184.693 C 243.891 184.433,243.814 183.899,242.986 184.093 C 242.183 184.282,241.399 183.850,241.690 183.379 C 241.803 183.196,242.361 183.046,242.928 183.046 C 243.755 183.046,243.961 182.928,243.961 182.456 C 243.961 181.304,242.016 180.845,241.157 181.794 M255.827 181.525 C 255.732 181.679,256.027 181.848,256.484 181.900 C 257.573 182.025,257.519 182.555,256.397 182.748 C 254.586 183.059,255.266 184.905,257.089 184.627 C 258.148 184.465,258.461 183.147,257.754 181.826 C 257.433 181.226,256.136 181.024,255.827 181.525 M65.532 182.893 C 66.799 185.312,66.418 187.179,64.403 188.424 C 63.838 188.774,63.302 189.252,63.212 189.486 C 63.010 190.013,64.238 192.406,64.808 192.595 C 65.068 192.682,64.923 192.221,64.420 191.362 C 63.396 189.616,63.410 189.298,64.539 188.631 C 66.938 187.214,67.189 183.806,65.051 181.695 C 64.884 181.530,65.100 182.069,65.532 182.893 M130.433 181.745 C 130.125 182.053,130.195 183.188,130.542 183.536 C 131.345 184.338,129.888 185.471,129.040 184.703 C 128.298 184.031,127.569 184.145,127.363 184.966 C 127.111 185.969,127.309 187.035,127.764 187.126 C 127.975 187.168,128.009 187.133,127.839 187.049 C 127.670 186.965,127.532 186.431,127.532 185.862 C 127.532 184.563,128.334 184.132,128.970 185.090 L 129.400 185.739 130.267 185.122 C 131.178 184.473,131.373 183.706,130.778 183.111 C 129.849 182.182,130.964 182.513,132.214 183.537 C 132.992 184.175,133.708 184.679,133.806 184.657 C 133.904 184.636,134.296 184.737,134.678 184.882 C 135.601 185.233,137.434 185.220,137.434 184.863 C 137.434 184.707,138.076 184.528,138.860 184.467 C 140.050 184.373,139.954 184.345,138.271 184.300 C 136.039 184.240,133.612 183.460,132.034 182.296 C 130.952 181.498,130.750 181.428,130.433 181.745 M180.572 182.371 C 180.653 182.616,180.376 182.746,179.770 182.746 C 178.878 182.746,178.612 182.479,179.057 182.033 C 179.380 181.711,180.432 181.945,180.572 182.371 M212.453 182.864 C 212.453 184.007,211.854 184.428,210.931 183.934 C 209.821 183.340,210.416 181.845,211.763 181.845 C 212.348 181.845,212.453 182.001,212.453 182.864 M225.583 182.371 C 225.666 182.624,225.357 182.746,224.631 182.746 C 223.605 182.746,223.305 182.497,223.770 182.032 C 224.101 181.700,225.446 181.951,225.583 182.371 M231.601 182.801 C 231.704 183.693,230.851 184.378,230.029 184.063 C 229.552 183.880,229.368 182.435,229.771 182.032 C 230.307 181.496,231.509 182.001,231.601 182.801 M239.160 182.446 C 239.160 182.912,238.960 183.046,238.260 183.046 C 237.559 183.046,237.359 182.912,237.359 182.446 C 237.359 181.979,237.559 181.845,238.260 181.845 C 238.960 181.845,239.160 181.979,239.160 182.446 M243.288 182.371 C 243.368 182.616,243.091 182.746,242.486 182.746 C 241.846 182.746,241.560 182.601,241.560 182.276 C 241.560 181.704,243.096 181.788,243.288 182.371 M191.148 183.646 C 191.148 184.037,190.372 184.209,189.920 183.918 C 189.556 183.684,189.556 183.608,189.920 183.374 C 190.372 183.083,191.148 183.255,191.148 183.646 M257.103 183.302 C 257.413 183.498,257.395 183.630,257.016 183.945 C 256.477 184.392,255.748 183.938,256.098 183.372 C 256.337 182.985,256.577 182.968,257.103 183.302 M235.259 183.621 C 235.259 183.972,234.620 184.199,234.134 184.020 C 233.484 183.781,233.726 183.346,234.509 183.346 C 234.921 183.346,235.259 183.470,235.259 183.621 M58.600 185.296 C 58.603 186.122,58.661 186.423,58.730 185.967 C 58.799 185.511,58.797 184.836,58.726 184.467 C 58.655 184.098,58.598 184.471,58.600 185.296 M239.322 184.866 C 239.611 185.334,239.279 185.546,238.260 185.546 C 237.764 185.546,237.278 185.465,237.179 185.366 C 236.816 185.003,237.418 184.546,238.260 184.546 C 238.735 184.546,239.213 184.690,239.322 184.866 M351.457 187.847 C 351.457 188.425,351.519 188.661,351.595 188.372 C 351.670 188.083,351.670 187.611,351.595 187.322 C 351.519 187.033,351.457 187.269,351.457 187.847 M59.115 187.690 C 59.115 187.932,61.238 189.090,61.512 188.997 C 61.675 188.942,61.202 188.601,60.461 188.240 C 59.721 187.878,59.115 187.631,59.115 187.690 M128.207 188.052 C 129.632 189.659,127.092 191.260,125.247 189.918 L 124.381 189.289 125.225 190.070 L 126.070 190.852 125.450 191.721 C 124.621 192.887,124.628 193.378,125.468 192.929 C 125.943 192.674,126.051 192.675,125.893 192.930 C 125.745 193.170,125.917 193.213,126.469 193.075 C 126.902 192.966,127.843 193.041,128.559 193.242 C 130.976 193.918,132.012 192.686,129.770 191.804 C 129.117 191.547,128.537 191.227,128.482 191.092 C 128.427 190.958,128.157 190.843,127.882 190.838 C 127.516 190.831,127.604 190.663,128.207 190.213 C 129.231 189.449,129.302 188.310,128.357 187.814 C 127.702 187.470,127.697 187.477,128.207 188.052 M200.455 189.272 C 200.458 189.915,200.524 189.998,200.750 189.647 C 201.130 189.060,201.130 188.447,200.750 188.447 C 200.585 188.447,200.452 188.818,200.455 189.272 M210.416 191.073 C 210.497 193.537,210.544 193.704,211.178 193.794 C 211.549 193.847,211.853 193.746,211.853 193.569 C 211.853 193.393,211.650 193.248,211.403 193.248 C 211.040 193.248,210.953 192.782,210.953 190.848 C 210.953 189.387,210.831 188.447,210.641 188.447 C 210.443 188.447,210.361 189.401,210.416 191.073 M221.455 191.148 C 221.455 192.748,221.578 193.848,221.755 193.848 C 221.933 193.848,222.056 192.748,222.056 191.148 C 222.056 189.547,221.933 188.447,221.755 188.447 C 221.578 188.447,221.455 189.547,221.455 191.148 M237.719 188.807 C 237.276 189.251,237.221 193.848,237.659 193.848 C 237.824 193.848,237.959 193.241,237.959 192.498 C 237.959 191.348,238.048 191.148,238.560 191.148 C 239.350 191.148,239.331 190.663,238.534 190.454 C 237.703 190.237,237.893 189.229,238.788 189.101 C 239.157 189.049,239.460 188.880,239.460 188.726 C 239.460 188.322,238.143 188.383,237.719 188.807 M350.802 190.323 C 350.180 192.403,349.326 193.833,347.839 195.282 C 347.067 196.033,346.707 196.501,347.037 196.323 C 348.614 195.470,350.869 192.170,351.245 190.163 C 351.528 188.658,351.272 188.750,350.802 190.323 M188.153 192.209 C 189.122 193.902,189.058 194.749,187.960 194.749 C 187.733 194.749,187.547 194.884,187.547 195.049 C 187.547 195.477,188.615 195.421,188.981 194.974 C 189.242 194.654,190.848 190.933,190.848 190.646 C 190.848 190.084,190.109 190.815,189.697 191.785 L 189.172 193.022 188.614 191.785 C 188.307 191.104,187.864 190.548,187.629 190.548 C 187.324 190.548,187.472 191.019,188.153 192.209 M191.815 191.015 C 191.006 191.581,190.950 192.677,191.697 193.352 C 193.411 194.903,196.073 192.772,194.449 191.148 C 193.729 190.428,192.724 190.378,191.815 191.015 M195.649 191.618 C 195.649 193.371,196.060 193.830,197.604 193.799 L 198.950 193.772 198.950 192.160 C 198.950 190.252,198.425 189.983,198.292 191.823 C 198.132 194.034,196.264 193.759,196.254 191.523 C 196.251 190.986,196.114 190.548,195.949 190.548 C 195.784 190.548,195.649 191.029,195.649 191.618 M201.950 192.244 C 201.950 193.126,202.086 193.848,202.251 193.848 C 202.416 193.848,202.551 193.241,202.551 192.498 C 202.551 191.348,202.640 191.148,203.151 191.148 C 203.481 191.148,203.751 191.022,203.751 190.868 C 203.751 190.714,203.346 190.599,202.851 190.613 C 201.966 190.639,201.950 190.666,201.950 192.244 M204.848 191.096 C 203.766 192.291,204.645 193.848,206.400 193.848 C 207.638 193.848,207.637 193.315,206.400 193.192 C 204.938 193.048,204.946 192.348,206.409 192.348 C 207.875 192.348,208.176 191.972,207.363 191.159 C 206.604 190.400,205.503 190.373,204.848 191.096 M213.053 191.148 C 212.723 191.478,212.453 191.997,212.453 192.302 C 212.453 193.683,214.870 194.391,215.857 193.300 C 217.397 191.598,214.685 189.517,213.053 191.148 M217.974 190.777 C 217.793 190.899,217.479 191.311,217.278 191.693 C 216.465 193.237,218.814 194.647,220.084 193.377 C 221.437 192.023,219.565 189.715,217.974 190.777 M223.008 191.242 C 222.185 192.119,222.190 192.388,223.050 193.196 C 224.100 194.182,224.721 194.008,223.754 192.999 L 222.940 192.149 223.570 191.348 C 224.342 190.366,223.908 190.284,223.008 191.242 M225.656 192.198 C 225.656 193.106,225.791 193.848,225.956 193.848 C 226.122 193.848,226.257 193.106,226.257 192.198 C 226.257 191.290,226.122 190.548,225.956 190.548 C 225.791 190.548,225.656 191.290,225.656 192.198 M227.457 192.263 C 227.457 194.151,227.983 194.399,228.115 192.573 C 228.274 190.368,230.458 190.771,230.458 193.006 C 230.458 193.469,230.610 193.848,230.797 193.848 C 231.276 193.848,230.935 191.143,230.415 190.821 C 230.191 190.682,229.434 190.593,228.732 190.623 L 227.457 190.678 227.457 192.263 M232.113 191.035 C 231.540 191.608,231.544 191.725,232.157 192.403 C 232.626 192.921,232.613 193.002,231.932 193.726 C 230.739 194.996,232.996 196.042,234.522 194.926 C 235.240 194.401,234.430 193.252,233.337 193.244 C 232.762 193.240,232.772 193.207,233.458 192.861 C 233.871 192.653,234.252 192.183,234.304 191.815 C 234.357 191.448,234.526 191.148,234.680 191.148 C 234.833 191.148,234.959 191.041,234.959 190.911 C 234.959 190.464,232.581 190.567,232.113 191.035 M240.372 191.204 C 239.637 191.993,239.614 192.307,240.227 193.182 C 241.130 194.471,243.361 193.789,243.361 192.223 C 243.361 190.690,241.456 190.041,240.372 191.204 M244.561 192.247 C 244.561 193.128,244.696 193.848,244.861 193.848 C 245.026 193.848,245.161 193.241,245.161 192.498 C 245.161 191.362,245.253 191.148,245.744 191.148 C 246.064 191.148,246.407 191.017,246.506 190.856 C 246.611 190.686,246.244 190.582,245.624 190.605 L 244.561 190.645 244.561 192.247 M75.950 191.805 C 77.527 193.391,77.908 194.292,77.488 195.440 C 77.170 196.309,77.179 196.345,77.578 195.817 C 78.505 194.593,77.441 192.123,75.551 191.112 C 75.178 190.912,75.338 191.189,75.950 191.805 M71.189 191.348 C 70.981 191.432,70.659 191.792,70.473 192.149 C 70.161 192.750,70.201 192.742,71.002 192.048 C 71.478 191.635,71.924 191.264,71.993 191.223 C 72.212 191.091,71.583 191.189,71.189 191.348 M194.159 191.767 C 194.599 192.590,194.014 193.311,193.004 193.188 C 192.008 193.068,191.501 192.257,192.027 191.623 C 192.587 190.949,193.763 191.028,194.159 191.767 M206.979 191.673 C 207.059 191.917,206.786 192.048,206.194 192.048 C 205.279 192.048,204.794 191.705,205.173 191.326 C 205.499 191.000,206.843 191.259,206.979 191.673 M215.475 191.623 C 216.001 192.257,215.494 193.068,214.498 193.188 C 213.488 193.311,212.903 192.590,213.343 191.767 C 213.739 191.028,214.915 190.949,215.475 191.623 M219.805 192.198 C 219.805 192.997,219.704 193.098,218.909 193.098 C 217.982 193.098,217.618 192.497,217.977 191.560 C 218.324 190.658,219.805 191.175,219.805 192.198 M233.758 191.748 C 233.758 192.384,232.754 192.608,232.408 192.048 C 232.131 191.600,232.517 191.148,233.176 191.148 C 233.558 191.148,233.758 191.354,233.758 191.748 M242.611 192.198 C 242.611 192.997,242.510 193.098,241.715 193.098 C 240.787 193.098,240.423 192.497,240.783 191.560 C 241.129 190.658,242.611 191.175,242.611 192.198 M152.715 193.529 C 151.985 194.013,150.915 194.925,150.338 195.554 L 149.288 196.699 150.488 195.603 C 151.148 195.000,152.356 194.088,153.172 193.577 C 153.988 193.066,154.518 192.648,154.349 192.648 C 154.180 192.648,153.444 193.045,152.715 193.529 M65.379 193.989 C 65.670 194.611,66.088 195.033,66.417 195.039 C 66.719 195.044,66.921 195.150,66.865 195.274 C 66.809 195.398,66.385 196.242,65.923 197.149 C 65.289 198.397,65.234 198.616,65.701 198.050 C 66.041 197.637,66.402 196.990,66.503 196.611 C 66.605 196.233,66.788 195.962,66.909 196.011 C 67.330 196.179,72.117 200.751,71.993 200.866 C 71.924 200.930,71.193 201.175,70.368 201.410 L 68.867 201.838 71.568 201.770 C 73.818 201.714,74.431 201.802,75.244 202.301 C 76.362 202.988,76.467 203.159,75.633 202.941 C 75.174 202.821,75.009 202.976,74.876 203.644 C 73.638 209.897,67.096 211.378,66.671 205.502 L 66.540 203.691 65.701 205.127 C 60.772 213.567,71.099 224.278,87.674 227.918 C 90.244 228.483,95.769 231.709,98.350 234.153 L 99.325 235.076 99.325 229.501 L 99.325 223.925 98.565 223.427 C 98.147 223.153,97.892 222.789,97.999 222.616 C 98.132 222.401,98.294 222.405,98.518 222.630 C 99.108 223.219,99.325 222.973,99.325 221.713 L 99.325 220.471 98.305 221.760 C 97.122 223.255,94.429 225.056,93.377 225.056 C 91.501 225.056,89.678 221.989,90.306 219.891 C 91.232 216.803,93.785 216.467,97.691 218.920 L 99.208 219.873 99.271 218.928 C 99.323 218.166,99.058 217.693,97.905 216.484 C 97.118 215.659,94.387 212.806,91.836 210.144 C 89.285 207.482,87.125 205.117,87.035 204.889 C 86.787 204.259,82.138 198.950,81.835 198.950 C 81.688 198.950,82.677 200.238,84.032 201.813 C 85.387 203.388,86.434 204.739,86.358 204.815 C 86.282 204.891,85.593 205.270,84.826 205.658 C 84.060 206.046,83.520 206.451,83.627 206.558 C 83.942 206.872,83.211 206.780,82.376 206.400 C 81.875 206.171,81.726 205.972,81.953 205.832 C 82.216 205.669,82.218 205.375,81.961 204.639 C 81.774 204.101,81.602 202.703,81.580 201.531 C 81.557 200.359,81.480 199.702,81.409 200.071 C 81.281 200.734,81.235 200.741,77.759 200.554 C 75.300 200.421,74.040 200.471,73.579 200.718 C 73.116 200.966,72.918 200.973,72.918 200.743 C 72.918 200.562,72.785 200.497,72.622 200.598 C 72.451 200.703,72.401 200.583,72.504 200.316 C 72.602 200.060,72.777 199.850,72.893 199.850 C 73.009 199.850,73.366 199.635,73.686 199.372 C 74.062 199.063,73.892 199.100,73.206 199.475 L 72.143 200.056 71.582 198.902 C 71.273 198.267,70.964 197.804,70.895 197.873 C 70.826 197.942,70.931 198.300,71.128 198.669 L 71.487 199.340 70.618 198.721 C 69.623 198.012,67.447 195.726,66.197 194.074 C 65.130 192.664,64.740 192.623,65.379 193.989 M69.987 193.848 C 69.987 194.426,70.049 194.662,70.124 194.374 C 70.200 194.085,70.200 193.612,70.124 193.323 C 70.049 193.035,69.987 193.271,69.987 193.848 M59.394 193.648 C 57.303 194.677,57.014 198.062,58.856 199.937 L 60.098 201.200 59.006 199.924 C 55.757 196.126,59.046 192.660,64.366 194.275 C 64.696 194.375,64.561 194.271,64.066 194.044 C 62.743 193.436,60.253 193.225,59.394 193.648 M329.755 193.797 C 330.297 194.809,332.852 197.470,333.708 197.912 C 335.130 198.647,335.081 198.400,333.620 197.474 C 332.861 196.992,331.670 195.844,330.975 194.923 C 329.700 193.234,329.214 192.785,329.755 193.797 M121.680 193.896 C 118.611 195.014,114.483 199.689,110.460 206.602 C 109.034 209.052,104.651 217.879,104.791 218.019 C 104.843 218.072,107.990 219.152,111.783 220.419 C 115.576 221.687,118.932 222.857,119.241 223.020 C 119.639 223.229,119.743 223.219,119.597 222.984 C 119.485 222.802,119.854 222.079,120.418 221.379 C 122.008 219.404,123.932 216.367,124.716 214.595 L 125.428 212.986 126.259 213.875 C 128.886 216.688,131.871 216.206,138.320 211.926 C 144.396 207.894,145.147 207.154,144.248 206.087 C 143.884 205.655,143.451 205.102,143.286 204.857 C 143.034 204.484,142.078 204.840,137.313 207.082 C 130.535 210.273,131.306 210.215,130.689 207.577 C 128.058 196.332,125.531 192.494,121.680 193.896 M154.614 194.145 C 153.228 194.990,153.404 195.180,154.876 194.430 C 155.557 194.082,156.367 193.864,156.677 193.945 C 156.986 194.026,157.239 193.970,157.239 193.820 C 157.239 193.334,155.614 193.535,154.614 194.145 M234.209 194.299 C 234.209 194.464,233.702 194.641,233.083 194.692 C 232.028 194.779,231.679 194.527,232.172 194.034 C 232.485 193.722,234.209 193.946,234.209 194.299 M151.819 196.151 C 149.526 198.223,149.169 200.107,151.231 199.253 C 152.346 198.791,152.256 198.506,151.129 198.934 C 149.680 199.485,150.320 197.901,152.240 196.183 C 152.927 195.569,153.387 195.063,153.264 195.058 C 153.141 195.053,152.491 195.545,151.819 196.151 M154.689 196.762 C 152.966 198.375,153.182 198.428,155.014 196.842 C 155.874 196.097,156.820 195.036,156.601 195.062 C 156.539 195.070,155.679 195.835,154.689 196.762 M75.619 197.786 C 74.808 198.519,74.628 198.768,75.169 198.410 C 75.998 197.861,77.372 196.537,77.091 196.558 C 77.024 196.563,76.362 197.116,75.619 197.786 M343.886 197.468 C 342.648 197.932,341.780 198.320,341.956 198.331 C 342.623 198.370,345.555 197.380,345.976 196.974 C 346.217 196.740,346.352 196.566,346.276 196.586 C 346.199 196.606,345.124 197.003,343.886 197.468 M337.034 198.943 C 337.474 199.076,338.284 199.078,338.834 198.948 C 339.685 198.747,339.565 198.710,338.035 198.706 C 336.668 198.702,336.427 198.759,337.034 198.943 M155.739 199.887 C 154.693 200.803,154.693 200.805,155.655 200.165 C 156.186 199.811,156.701 199.393,156.798 199.236 C 157.087 198.767,156.847 198.915,155.739 199.887 M148.673 199.672 C 148.788 200.033,148.621 200.492,148.220 200.919 C 147.550 201.631,147.806 202.856,148.623 202.846 C 148.878 202.843,148.888 202.775,148.657 202.621 C 148.035 202.205,148.014 201.500,148.604 200.850 C 149.085 200.321,149.129 200.097,148.843 199.650 C 148.508 199.125,148.500 199.126,148.673 199.672 M60.844 201.262 C 61.217 201.334,61.757 201.332,62.044 201.256 C 62.331 201.181,62.026 201.123,61.365 201.126 C 60.705 201.129,60.470 201.191,60.844 201.262 M151.538 201.650 L 150.188 201.860 151.388 201.901 C 152.048 201.923,152.791 201.810,153.038 201.650 C 153.286 201.490,153.353 201.378,153.188 201.400 C 153.023 201.422,152.281 201.535,151.538 201.650 M67.194 202.776 L 66.467 203.601 67.367 202.851 C 67.862 202.438,68.323 202.067,68.392 202.026 C 68.461 201.984,68.383 201.950,68.219 201.950 C 68.056 201.950,67.594 202.322,67.194 202.776 M348.116 203.690 C 346.957 206.632,342.077 213.345,337.498 218.296 C 335.829 220.101,335.832 220.106,338.224 219.497 C 339.275 219.230,341.688 218.619,343.586 218.139 C 349.666 216.601,351.495 216.137,353.488 215.624 C 356.534 214.841,357.196 214.738,356.985 215.079 C 356.881 215.248,356.288 215.475,355.667 215.584 C 355.047 215.693,353.391 216.101,351.988 216.491 C 350.585 216.882,347.952 217.565,346.137 218.011 C 338.498 219.887,336.793 220.299,336.030 220.454 C 335.588 220.543,334.508 221.314,333.630 222.166 C 331.712 224.027,326.304 228.463,324.267 229.846 L 322.802 230.840 322.977 228.473 L 323.152 226.107 322.694 228.507 C 322.424 229.922,322.235 232.603,322.232 235.039 C 322.229 238.286,322.133 239.265,321.783 239.615 C 321.527 239.870,321.479 240.060,321.668 240.060 C 321.850 240.060,322.070 239.875,322.157 239.650 C 322.269 239.358,323.242 239.177,325.523 239.025 C 331.940 238.595,339.817 236.715,345.986 234.140 C 355.113 230.330,363.805 222.949,368.088 215.373 L 369.107 213.570 368.447 213.087 C 363.608 209.539,356.725 205.852,351.337 203.920 L 348.436 202.879 348.116 203.690 M78.148 210.089 C 79.728 210.770,81.020 211.454,81.020 211.610 C 81.020 211.963,80.076 211.686,78.308 210.813 C 77.559 210.443,76.445 209.975,75.832 209.773 C 75.220 209.571,74.719 209.281,74.719 209.129 C 74.719 208.676,75.138 208.793,78.148 210.089 M88.864 211.171 C 88.808 212.257,88.580 213.665,88.356 214.300 C 88.118 214.974,88.071 215.454,88.242 215.454 C 88.469 215.454,90.105 216.402,91.198 217.167 C 91.267 217.215,91.245 217.332,91.151 217.426 C 90.947 217.630,89.213 216.789,88.403 216.093 C 87.971 215.722,87.802 215.696,87.701 215.985 C 86.943 218.155,82.349 217.146,81.489 214.621 C 80.359 211.305,82.248 209.452,86.758 209.452 C 87.544 209.452,88.276 209.308,88.384 209.132 C 88.784 208.485,88.963 209.246,88.864 211.171 M325.051 211.253 C 325.051 211.830,325.113 212.067,325.188 211.778 C 325.264 211.489,325.264 211.017,325.188 210.728 C 325.113 210.439,325.051 210.675,325.051 211.253 M324.705 212.683 C 324.692 212.892,324.337 215.844,323.915 219.244 C 323.494 222.644,323.209 225.485,323.282 225.557 C 323.612 225.888,325.168 213.397,324.884 212.689 C 324.761 212.385,324.724 212.383,324.705 212.683 M95.402 214.077 C 95.595 214.310,95.644 214.568,95.510 214.650 C 95.188 214.849,94.177 214.100,94.428 213.849 C 94.730 213.547,95.018 213.614,95.402 214.077 M319.992 229.707 C 319.993 231.523,320.042 232.227,320.102 231.272 C 320.162 230.317,320.161 228.831,320.101 227.971 C 320.040 227.111,319.992 227.892,319.992 229.707 M95.124 234.174 C 95.124 234.238,95.522 234.349,96.008 234.420 C 96.495 234.492,96.824 234.439,96.741 234.304 C 96.592 234.064,95.124 233.946,95.124 234.174 M108.142 235.502 C 108.289 235.740,107.406 235.867,105.113 235.935 L 101.875 236.032 105.251 236.095 C 108.379 236.154,109.214 235.957,108.281 235.380 C 108.070 235.250,108.016 235.298,108.142 235.502 M99.850 235.771 C 100.221 235.842,100.829 235.842,101.200 235.771 C 101.572 235.699,101.268 235.641,100.525 235.641 C 99.782 235.641,99.479 235.699,99.850 235.771 M134.244 238.317 C 134.218 239.425,134.258 239.513,134.520 238.935 C 134.711 238.511,134.723 238.029,134.550 237.642 C 134.327 237.142,134.269 237.270,134.244 238.317 M317.104 239.667 C 315.802 240.007,316.788 240.355,318.905 240.302 C 321.216 240.245,321.219 240.244,319.346 240.138 C 318.255 240.076,317.536 239.911,317.638 239.745 C 317.735 239.588,317.773 239.476,317.722 239.495 C 317.671 239.514,317.393 239.591,317.104 239.667 M100.300 241.775 C 100.754 241.844,101.497 241.844,101.950 241.775 C 102.404 241.707,102.033 241.650,101.125 241.650 C 100.218 241.650,99.846 241.707,100.300 241.775 M105.710 242.081 C 106.499 242.143,107.715 242.143,108.411 242.080 C 109.108 242.017,108.462 241.966,106.977 241.967 C 105.491 241.968,104.922 242.019,105.710 242.081 M111.703 242.375 C 112.157 242.444,112.899 242.444,113.353 242.375 C 113.807 242.307,113.436 242.250,112.528 242.250 C 111.620 242.250,111.249 242.307,111.703 242.375 M117.258 242.673 C 117.631 242.745,118.171 242.742,118.458 242.667 C 118.745 242.592,118.440 242.533,117.779 242.536 C 117.119 242.540,116.885 242.601,117.258 242.673 M122.056 242.972 C 122.427 243.044,123.035 243.044,123.406 242.972 C 123.777 242.901,123.473 242.842,122.731 242.842 C 121.988 242.842,121.684 242.901,122.056 242.972 M124.910 242.976 C 125.366 243.045,126.042 243.043,126.411 242.972 C 126.780 242.901,126.407 242.844,125.581 242.847 C 124.756 242.849,124.454 242.907,124.910 242.976 " stroke="none" fill="#fc7c7c" fill-rule="evenodd"></path><path id="path3" d="" stroke="none" fill="#100bcc0" fill-rule="evenodd"></path><path id="path4" d="" stroke="none" fill="#100bcc0" fill-rule="evenodd"></path></g></svg>